<svg xmlns="http://www.w3.org/2000/svg" xmlns:xlink="http://www.w3.org/1999/xlink" width="78.80859375" height="91" viewBox="0 0 78.80859375 91" fill="none">
<path   fill-rule="evenodd"  fill="#FFFFFF" opacity="0.75" d="M39.4043 91L78.8085 68.25L78.8085 22.75L39.4043 0L0.000144482 22.75L0.000144482 68.25L39.4043 91ZM28.6543 64.1195L60.9043 45.5L28.6543 26.8805L28.6543 64.1195Z">
</path>
<path fill-rule="evenodd"  fill="rgba(255, 255, 255, 1)"  d="M78.8085 68.25L39.4043 91L0.000144482 68.25L0.000144482 22.75L39.4043 0L78.8085 22.75L78.8085 68.25ZM76.8085 67.0953L39.4043 88.6906L2.00014 67.0953L2.00014 23.9047L39.4043 2.3094L76.8085 23.9047L76.8085 67.0953ZM26.6543 23.4164L26.6543 67.5836L29.6543 65.8515L64.9043 45.5L26.6543 23.4164ZM58.9043 46.6547L30.6543 62.9648L28.6543 64.1195L28.6543 26.8805L28.6544 26.8805L30.6543 28.0352L58.9043 44.3453L60.9043 45.5L58.9043 46.6547Z">
</path>
</svg>
