<svg xmlns="http://www.w3.org/2000/svg" xmlns:xlink="http://www.w3.org/1999/xlink" width="135" height="41.000030517578125" viewBox="0 0 135 41.000030517578125" fill="none">
<path d="M5.8223 0.169495L134.859 0.169495L134.859 34.0538C134.859 37.7966 132.316 40.8306 129.179 40.8306L0.142578 40.8306L0.142578 6.94635C0.142578 3.2036 2.68548 0.169495 5.8223 0.169495Z"   fill="url(#linear_fill_74_42)" >
</path>
<path d="M5.82172 0L135 0L135 34.0537C135 37.8901 132.394 41 129.178 41L0 41L0 6.94629C0 3.10996 2.60648 0 5.82172 0ZM5.82172 0.338843C2.7633 0.338843 0.283986 3.2971 0.283986 6.94629L0.283986 40.8306L0.141993 40.8306L0.141993 40.6612L129.178 40.6612C132.237 40.6612 134.716 37.7031 134.716 34.0537L134.716 0.169422L134.858 0.169422L134.858 0.338843L5.82172 0.338843Z"   fill="#FFFFFF" >
</path>
<g opacity="0.6">
<path d="M6.3659 2.37164L133.035 2.37164L133.035 33.3758C133.035 36.2763 131.064 38.6279 128.633 38.6279L1.96411 38.6279L1.96411 7.62371C1.96411 4.72308 3.93486 2.37164 6.3659 2.37164ZM6.3659 2.71049C4.09168 2.71049 2.2481 4.91022 2.2481 7.62371L2.2481 38.4584L2.1061 38.4584L2.1061 38.289L128.633 38.289C130.907 38.289 132.751 36.0892 132.751 33.3758L132.751 2.54106L132.893 2.54106L132.893 2.71049L6.3659 2.71049Z"   fill="#FFFFFF" >
</path>
</g>
<path d="M22.0348 21.0081L18.9473 17.6536L15.8599 21.0081L18.9473 24.3627L22.0348 21.0081Z" fill-rule="evenodd"  fill="url(#linear_fill_74_48)" >
</path>
<path d="M19.2268 21.0086L15.0166 16.4342L10.8064 21.0086L15.0166 25.583L19.2268 21.0086Z" fill-rule="evenodd"  fill="url(#linear_fill_74_49)" >
</path>
<path d="M112.967 21.0084L116.054 24.3629L119.142 21.0084L116.054 17.6538L112.967 21.0084Z" fill-rule="evenodd"  fill="url(#linear_fill_74_50)" >
</path>
<path d="M115.771 21.0086L119.982 25.583L124.192 21.0086L119.982 16.4342L115.771 21.0086Z" fill-rule="evenodd"  fill="url(#linear_fill_74_51)" >
</path>
<g >
<path     fill="url(#linear_fill_8_1_0)"  d="M41.306 17.954L46.184 17.954L46.184 18.854L41.306 18.854L41.306 17.954ZM41.306 15.686L46.184 15.686L46.184 16.568L41.306 16.568L41.306 15.686ZM39.344 14.138L39.344 20.384L48.254 20.384L48.254 14.138L39.344 14.138ZM39.524 23.516C39.272 25.964 38.516 27.98 37.004 29.168C37.454 29.456 38.264 30.122 38.588 30.464C39.398 29.726 40.028 28.754 40.514 27.602C41.72 29.816 43.538 30.248 45.932 30.248L49.064 30.248C49.136 29.708 49.406 28.79 49.658 28.358C48.866 28.394 46.616 28.394 46.004 28.394C45.572 28.394 45.158 28.376 44.762 28.34L44.762 26.234L48.2 26.234L48.2 24.542L44.762 24.542L44.762 22.976L49.172 22.976L49.172 21.23L38.462 21.23L38.462 22.976L42.728 22.976L42.728 27.692C42.08 27.278 41.54 26.63 41.144 25.586C41.288 25.01 41.396 24.398 41.486 23.75L39.524 23.516ZM34.538 13.598L34.538 17L32.594 17L32.594 18.98L34.538 18.98L34.538 22.202L32.414 22.724L32.882 24.794L34.538 24.326L34.538 27.962C34.538 28.196 34.466 28.268 34.25 28.268C34.034 28.286 33.404 28.286 32.738 28.268C33.008 28.826 33.242 29.726 33.296 30.248C34.448 30.248 35.258 30.176 35.798 29.834C36.356 29.51 36.518 28.97 36.518 27.98L36.518 23.75L38.426 23.192L38.138 21.248L36.518 21.68L36.518 18.98L38.318 18.98L38.318 17L36.518 17L36.518 13.598L34.538 13.598ZM55.328 18.134C54.32 19.43 52.556 20.762 50.918 21.572C51.422 21.932 52.25 22.724 52.646 23.156C54.248 22.166 56.192 20.528 57.452 18.944L55.328 18.134ZM60.728 19.25C62.33 20.402 64.346 22.112 65.228 23.246L67.082 21.824C66.074 20.69 63.986 19.088 62.42 18.026L60.728 19.25ZM56.714 21.338L54.77 21.932C55.472 23.552 56.336 24.938 57.416 26.108C55.634 27.278 53.402 28.052 50.792 28.556C51.206 29.024 51.854 29.996 52.106 30.482C54.77 29.834 57.092 28.898 59 27.548C60.818 28.916 63.104 29.852 65.948 30.392C66.218 29.816 66.794 28.916 67.262 28.448C64.598 28.052 62.42 27.278 60.692 26.144C61.88 24.974 62.834 23.57 63.554 21.878L61.376 21.248C60.836 22.652 60.044 23.84 59.036 24.812C58.046 23.822 57.272 22.67 56.714 21.338ZM57.218 14.084C57.524 14.624 57.866 15.29 58.1 15.866L51.062 15.866L51.062 17.972L66.938 17.972L66.938 15.866L60.53 15.866L60.584 15.848C60.35 15.164 59.756 14.138 59.27 13.364L57.218 14.084ZM71.906 21.878L75.812 21.878L75.812 23.768L71.906 23.768L71.906 21.878ZM71.906 19.88L71.906 18.062L75.812 18.062L75.812 19.88L71.906 19.88ZM82.094 21.878L82.094 23.768L78.08 23.768L78.08 21.878L82.094 21.878ZM82.094 19.88L78.08 19.88L78.08 18.062L82.094 18.062L82.094 19.88ZM75.812 13.58L75.812 15.992L69.746 15.992L69.746 26.792L71.906 26.792L71.906 25.838L75.812 25.838L75.812 30.482L78.08 30.482L78.08 25.838L82.094 25.838L82.094 26.702L84.344 26.702L84.344 15.992L78.08 15.992L78.08 13.58L75.812 13.58ZM87.458 15.164C88.412 16.046 89.69 17.27 90.266 18.08L91.742 16.568C91.112 15.812 89.798 14.66 88.844 13.85L87.458 15.164ZM86.612 19.142L86.612 21.212L88.808 21.212L88.808 26.774C88.808 27.62 88.304 28.232 87.908 28.502C88.25 28.898 88.79 29.816 88.952 30.32C89.258 29.888 89.852 29.384 93.128 26.81C92.912 26.396 92.57 25.55 92.444 24.974L90.878 26.162L90.878 19.142L86.612 19.142ZM95.45 25.406L100.148 25.406L100.148 26.432L95.45 26.432L95.45 25.406ZM95.45 24.02L95.45 23.12L100.148 23.12L100.148 24.02L95.45 24.02ZM96.71 13.58L96.71 14.822L92.768 14.822L92.768 16.352L96.71 16.352L96.71 17.09L93.272 17.09L93.272 18.53L96.71 18.53L96.71 19.286L92.228 19.286L92.228 20.834L103.424 20.834L103.424 19.286L98.852 19.286L98.852 18.53L102.326 18.53L102.326 17.09L98.852 17.09L98.852 16.352L102.866 16.352L102.866 14.822L98.852 14.822L98.852 13.58L96.71 13.58ZM93.452 21.536L93.452 30.5L95.45 30.5L95.45 27.854L100.148 27.854L100.148 28.394C100.148 28.61 100.058 28.682 99.824 28.682C99.572 28.682 98.708 28.7 97.988 28.646C98.222 29.168 98.492 29.96 98.564 30.482C99.824 30.5 100.706 30.482 101.354 30.176C102.002 29.888 102.182 29.366 102.182 28.43L102.182 21.536L93.452 21.536Z">
</path>
</g>
<defs>
<linearGradient id="linear_fill_74_42" x1="67.50048828125" y1="40.83062744140625" x2="68.84765625" y2="0.16949462890625" gradientUnits="userSpaceOnUse">
<stop offset="0" stop-color="#FFEDC6"  />
<stop offset="1" stop-color="#E1BC87"  />
</linearGradient>
<linearGradient id="linear_fill_74_48" x1="22.034423828125" y1="21.00811767578125" x2="15.859619140625" y2="21.00811767578125" gradientUnits="userSpaceOnUse">
<stop offset="0" stop-color="#FFFFFF"  />
<stop offset="1" stop-color="#FFFFFF" stop-opacity="0" />
</linearGradient>
<linearGradient id="linear_fill_74_49" x1="19.22705078125" y1="21.008575439453125" x2="12.70361328125" y2="21.008575439453125" gradientUnits="userSpaceOnUse">
<stop offset="0" stop-color="#FFFFFF" stop-opacity="0.44" />
<stop offset="1" stop-color="#FFFFFF" stop-opacity="0" />
</linearGradient>
<linearGradient id="linear_fill_74_50" x1="119.141845703125" y1="21.00836181640625" x2="112.966796875" y2="21.00836181640625" gradientUnits="userSpaceOnUse">
<stop offset="0" stop-color="#FFFFFF"  />
<stop offset="1" stop-color="#FFFFFF" stop-opacity="0" />
</linearGradient>
<linearGradient id="linear_fill_74_51" x1="124.192138671875" y1="21.008575439453125" x2="117.66845703125" y2="21.008575439453125" gradientUnits="userSpaceOnUse">
<stop offset="0" stop-color="#FFFFFF" stop-opacity="0.44" />
<stop offset="1" stop-color="#FFFFFF" stop-opacity="0" />
</linearGradient>
<linearGradient id="linear_fill_8_1_0" x1="72.670654296875" y1="42.17108154296875" x2="73.390625" y2="2.19610595703125" gradientUnits="userSpaceOnUse">
<stop offset="0" stop-color="#703100"  />
<stop offset="1" stop-color="#A88752"  />
</linearGradient>
</defs>
</svg>
