<svg xmlns="http://www.w3.org/2000/svg" xmlns:xlink="http://www.w3.org/1999/xlink" width="177" height="47" viewBox="0 0 177 47" fill="none">
<path   fill-rule="evenodd"  fill="#FFEDC6"  d="M7.34426 37L29.4058 37C30.0952 37 30.6755 36.4834 30.7562 35.7977L32.9907 16.7806C33.053 16.2535 32.8035 15.7383 32.3515 15.4605C31.8999 15.1825 31.3281 15.193 30.8867 15.487L25.1748 19.2996L19.4818 11.3206C19.2268 10.9626 18.8144 10.75 18.375 10.75C17.9354 10.75 17.5233 10.9626 17.2679 11.3206L11.575 19.2996L5.8645 15.487L5.86304 15.487C5.42195 15.1933 4.85041 15.1828 4.39879 15.4603C3.94717 15.7375 3.69766 16.2522 3.75938 16.7793L5.99379 35.7977C6.07452 36.4834 6.65484 37 7.34426 37ZM8.55314 34.2768L28.1964 34.2768L29.9454 19.3881L24.492 23.0276L18.3748 14.4537L12.2576 23.0276L6.80412 19.3881L8.55314 34.2768ZM18.3749 23.3843C19.877 23.3843 21.0948 24.6035 21.0948 26.1074C21.0948 27.6114 19.877 28.8306 18.3749 28.8306C16.8727 28.8306 15.6549 27.6114 15.6549 26.1074C15.6549 24.6035 16.8727 23.3843 18.3749 23.3843Z">
</path>
<g >
<path     fill="url(#linear_fill_6_99_0)"  d="M74.996 23.832L73.268 36.288L55.484 36.288L57.212 23.832L74.996 23.832ZM54.98 31.716L53.144 29.52L52.208 36.288L46.736 36.288L47.924 27.864L44.504 27.864L51.776 18.252L46.196 18.252L46.664 15.048L57.32 15.048L56.744 19.152L54.116 22.644L54.044 23.184L55.844 25.38L54.98 31.716ZM74.852 15.048L73.772 22.644L58.256 22.644L59.336 15.048L74.852 15.048ZM76.616 10.944L76.184 13.86L58.4 13.86L58.832 10.944L76.616 10.944ZM56.312 14.112L50.588 14.112L49.832 11.34L49.076 10.476L55.412 10.476L56.312 14.112ZM68.912 20.016L69.272 17.568L64.484 17.568L64.124 20.016L68.912 20.016ZM63.08 33.12L63.368 31.032L61.208 31.032L60.92 33.12L63.08 33.12ZM68.948 33.12L69.236 31.032L67.148 31.032L66.86 33.12L68.948 33.12ZM61.532 28.62L63.692 28.62L63.98 26.604L61.82 26.604L61.532 28.62ZM67.76 26.604L67.472 28.62L69.56 28.62L69.848 26.604L67.76 26.604ZM96.308 14.148L91.448 14.472L90.98 17.928L96.452 17.928L95.984 21.348L90.476 21.348L88.388 36.324L82.916 36.324L85.004 21.348L79.568 21.348L80.036 17.928L85.508 17.928L85.94 14.868L80.756 15.192L81.224 11.772L96.776 10.728L96.308 14.148ZM109.736 11.088L106.496 33.948Q106.352 34.992 105.56 35.658Q104.768 36.324 103.724 36.324L97.64 36.324L100.808 32.976L103.76 12.132L102.896 11.088L109.736 11.088ZM102.14 13.824L99.548 32.292L95.48 32.292L98.072 13.824L102.14 13.824ZM77.624 35.028L80.108 22.356L84.212 22.356L81.728 35.028L77.624 35.028ZM89.936 35.028L91.052 22.356L95.156 22.356L94.04 35.028L89.936 35.028ZM114.272 14.112L112.976 13.14L124.064 13.14L124.244 11.808L123.092 10.44L131.912 10.44L131.516 13.14L141.668 13.14L139.184 30.924L128.996 30.924L128.24 36.288L120.788 36.288L121.544 30.924L111.932 30.924L114.272 14.112ZM119.564 20.196L123.056 20.196L123.596 16.416L120.104 16.416L119.564 20.196ZM118.52 27.612L122.012 27.612L122.552 23.832L119.06 23.832L118.52 27.612ZM132.92 27.612L133.46 23.832L130.004 23.832L129.464 27.612L132.92 27.612ZM131.048 16.416L130.508 20.196L133.964 20.196L134.504 16.416L131.048 16.416ZM164.564 36.216L166.184 34.236L166.436 32.292L159.272 32.292L158.732 36.216L152.828 36.216L154.736 22.716L173.708 22.716L172.124 33.84Q171.98 34.884 171.476 35.55Q170.972 36.216 170 36.216L164.564 36.216ZM162.08 15.66L162.188 14.76L155.744 14.76L156.104 12.06L162.584 12.06L162.62 11.808L161.324 10.476L169.064 10.476L168.812 12.06L175.328 12.06L174.968 14.76L168.452 14.76L168.308 15.66L173.708 15.66L173.312 18.396L167.948 18.396L167.804 19.296L174.86 19.296L174.464 22.032L153.908 22.032L154.304 19.296L161.54 19.296L161.684 18.396L155.996 18.396L156.392 15.66L162.08 15.66ZM144.512 36.216L146.636 20.952L144.692 20.952L145.196 17.424L153.224 17.424L151.352 30.852L153.116 30.348L152.576 34.056L144.512 36.216ZM152.468 11.088L153.368 15.552L147.716 15.552L146.816 11.088L152.468 11.088ZM159.632 29.88L166.796 29.88L166.94 28.836L159.776 28.836L159.632 29.88ZM160.1 26.424L167.264 26.424L167.408 25.452L160.244 25.452L160.1 26.424Z">
</path>
</g>
<defs>
<linearGradient id="linear_fill_6_99_0" x1="44" y1="23.5" x2="177" y2="23.5" gradientUnits="userSpaceOnUse">
<stop offset="0" stop-color="#FFEDC6"  />
<stop offset="1" stop-color="#BF9575"  />
</linearGradient>
</defs>
</svg>
